<?xml version="1.0" encoding="UTF-8"?>
<!-- Generator: visioncortex VTracer 0.6.12 -->
<svg version="1.1" xmlns="http://www.w3.org/2000/svg" width="512" height="512">
<path d="M0 0 C4.87 -0.52 4.87 -0.52 11.44 -0.53 C13.78 -0.54 16.11 -0.54 18.52 -0.55 C19.76 -0.54 19.76 -0.54 26 -0.5 C28.47 -0.52 30.93 -0.53 33.48 -0.55 C35.81 -0.54 38.15 -0.54 40.56 -0.53 C41.65 -0.53 41.65 -0.53 47.13 -0.52 C48.74 -0.35 50.34 -0.18 52 0 C52.33 1.32 52.66 2.64 53 4 C57.22 4.25 57.22 4.25 62.5 4 C67.78 3.75 67.78 3.75 72 4 C72.33 5.32 72.66 6.64 73 8 C74.81 8 76.63 8 78.5 8 C80.31 8 82.13 8 84 8 C84.33 9.32 84.66 10.64 85 12 C88.67 12.04 92.33 12.04 96 12 C96.33 12.99 96.66 13.98 97 15 C98.98 15 100.96 15 103 15 C103.33 14.34 103.66 13.68 104 13 C105.65 13 107.3 13 109 13 C109 13.99 109 14.98 109 16 C107.35 16 105.7 16 104 16 C104.33 16.99 104.66 17.98 105 19 C106.32 19.33 107.64 19.66 109 20 C109.33 20.99 109.66 21.98 110 23 C111.65 23.33 113.3 23.66 115 24 C115.33 23.01 115.66 22.02 116 21 C117.65 21 119.3 21 121 21 C121 21.99 121 22.98 121 24 C119.68 24.66 118.36 25.32 117 26 C117 26.66 117 27.32 117 28 C118.32 28.33 119.64 28.66 121 29 C121.33 29.66 121.66 30.32 122 31 C122.99 31.33 123.98 31.66 125 32 C125.33 32.99 125.66 33.98 126 35 C126.99 35.33 127.98 35.66 129 36 C129.33 36.99 129.66 37.98 130 39 C131.32 39.33 132.64 39.66 134 40 C134.33 38.68 134.66 37.36 135 36 C135.66 36.33 136.32 36.66 137 37 C137.33 38.32 137.66 39.64 138 41 C138.99 41.33 139.98 41.66 141 42 C141.19 47.06 141.19 47.06 141 52 C140.01 52 139.02 52 138 52 C138 53.32 138 54.64 138 56 C139.32 56 140.64 56 142 56 C142 53.69 142 51.38 142 49 C142.99 49 143.98 49 145 49 C145.08 52.33 145.08 55.67 145 59 C144.34 59.33 143.68 59.66 143 60 C142.8 64.66 142.74 69.33 142.75 74 C142.74 76.58 142.74 79.16 142.73 81.81 C142.78 82.83 142.78 82.83 143 88 C143.66 88.33 144.32 88.66 145 89 C145.08 92.33 145.08 95.67 145 99 C144.01 99 143.02 99 142 99 C142 96.69 142 94.38 142 92 C140.68 92 139.36 92 138 92 C138 93.32 138 94.64 138 96 C138.99 96 139.98 96 141 96 C141 99.63 141 103.26 141 107 C140.01 107 139.02 107 138 107 C137.67 107.66 137.34 108.32 137 109 C138.32 109.33 139.64 109.66 141 110 C141 110.66 141 111.32 141 112 C138.36 112 135.72 112 133 112 C133.33 112.99 133.66 113.98 134 115 C135.65 115 137.3 115 139 115 C139.33 114.34 139.66 113.68 140 113 C141.65 113 143.3 113 145 113 C145 113.99 145 114.98 145 116 C143.68 116 142.36 116 141 116 C141 117.32 141 118.64 141 120 C142.32 120 143.64 120 145 120 C145.33 120.99 145.66 121.98 146 123 C146.99 123.33 147.98 123.66 149 124 C149.33 124.99 149.66 125.98 150 127 C150.99 127.33 151.98 127.66 153 128 C153.33 128.99 153.66 129.98 154 131 C154.99 131.33 155.98 131.66 157 132 C157.33 132.99 157.66 133.98 158 135 C158.99 135.33 159.98 135.66 161 136 C161.33 136.99 161.66 137.98 162 139 C162.99 139.33 163.98 139.66 165 140 C165.33 140.99 165.66 141.98 166 143 C166.99 143.33 167.98 143.66 169 144 C169.33 144.99 169.66 145.98 170 147 C171.32 147.33 172.64 147.66 174 148 C174.33 146.68 174.66 145.36 175 144 C175.66 144.33 176.32 144.66 177 145 C177.33 146.32 177.66 147.64 178 149 C178.99 149.33 179.98 149.66 181 150 C181 152.31 181 154.62 181 157 C179.68 156.67 178.36 156.34 177 156 C177.33 156.99 177.66 157.98 178 159 C179.32 159.33 180.64 159.66 182 160 C182 158.68 182 157.36 182 156 C182.99 156.33 183.98 156.66 185 157 C185.33 158.32 185.66 159.64 186 161 C186.99 161 187.98 161 189 161 C189.33 163.64 189.66 166.28 190 169 C190.99 169 191.98 169 193 169 C193.33 171.64 193.66 174.28 194 177 C194.99 177 195.98 177 197 177 C197 180.63 197 184.26 197 188 C196.01 188 195.02 188 194 188 C194 189.32 194 190.64 194 192 C195.32 192 196.64 192 198 192 C198 189.69 198 187.38 198 185 C198.99 185 199.98 185 201 185 C201.09 188.33 201.08 191.67 201 195 C200.34 195.66 199.68 196.32 199 197 C199.66 197.33 200.32 197.66 201 198 C201 198.66 201 199.32 201 200 C200.01 200 199.02 200 198 200 C198 201.32 198 202.64 198 204 C199.32 204 200.64 204 202 204 C202 200.37 202 196.74 202 193 C202.99 193 203.98 193 205 193 C205.08 197.67 205.08 202.33 205 207 C204.34 207.33 203.68 207.66 203 208 C202.67 209.65 202.34 211.3 202 213 C202.99 213 203.98 213 205 213 C205 213.99 205 214.98 205 216 C204.01 216 203.02 216 202 216 C202 217.32 202 218.64 202 220 C203.32 220 204.64 220 206 220 C206 215.05 206 210.1 206 205 C206.99 205 207.98 205 209 205 C209.05 207.98 209.09 210.96 209.12 213.94 C209.15 215.6 209.17 217.26 209.2 218.96 C209.13 220.3 209.07 221.63 209 223 C208.34 223.33 207.68 223.66 207 224 C206.8 228.39 206.74 232.79 206.73 237.19 C206.73 238.52 206.73 239.84 206.73 241.21 C206.73 244.03 206.73 246.84 206.74 249.66 C206.75 253.98 206.74 258.31 206.73 262.63 C206.73 265.36 206.73 268.09 206.73 270.81 C206.74 272.06 206.74 272.06 206.74 278.39 C206.83 280.24 206.91 282.09 207 284 C207.66 284.33 208.32 284.66 209 285 C209 287.64 209 290.28 209 293 C208.01 293 207.02 293 206 293 C206 293.66 206 294.32 206 295 C207.32 295.33 208.64 295.66 210 296 C210 294.68 210 293.36 210 292 C210.99 292 211.98 292 213 292 C213 294.64 213 297.28 213 300 C212.01 300 211.02 300 210 300 C210 301.32 210 302.64 210 304 C211.32 304 212.64 304 214 304 C214 301.69 214 299.38 214 297 C214.99 297 215.98 297 217 297 C217.19 301.94 217.19 301.94 217 307 C216.01 307.33 215.02 307.66 214 308 C213.89 313.38 213.96 318.63 214.19 324 C214.23 325.51 214.28 327.03 214.32 328.59 C214.46 332.39 214.72 336.2 215 340 C215.66 340.33 216.32 340.66 217 341 C217.08 344.33 217.08 347.67 217 351 C216.01 351 215.02 351 214 351 C214 348.69 214 346.38 214 344 C212.68 344 211.36 344 210 344 C210 345.32 210 346.64 210 348 C210.99 348 211.98 348 213 348 C213 350.31 213 352.62 213 355 C212.01 355.33 211.02 355.66 210 356 C210 354.68 210 353.36 210 352 C208.68 352.33 207.36 352.66 206 353 C205.67 353.99 205.34 354.98 205 356 C204.01 356.33 203.02 356.66 202 357 C201.67 357.99 201.34 358.98 201 360 C200.01 360.33 199.02 360.66 198 361 C197.67 361.99 197.34 362.98 197 364 C196.01 364.33 195.02 364.66 194 365 C193.67 365.99 193.34 366.98 193 368 C194.65 368.33 196.3 368.66 198 369 C197.67 369.66 197.34 370.32 197 371 C195.68 371 194.36 371 193 371 C192.67 370.34 192.34 369.68 192 369 C189.69 368.67 187.38 368.34 185 368 C185 369.32 185 370.64 185 372 C183.06 372.04 181.13 372.07 179.13 372.11 C176.63 372.18 174.14 372.24 171.56 372.31 C169.07 372.37 166.57 372.43 164 372.49 C162.02 372.66 160.04 372.83 158 373 C157.67 373.99 157.34 374.98 157 376 C156.01 376.33 155.02 376.66 154 377 C153.67 377.99 153.34 378.98 153 380 C152.01 380.33 151.02 380.66 150 381 C149.67 381.99 149.34 382.98 149 384 C148.01 384.33 147.02 384.66 146 385 C145.67 385.99 145.34 386.98 145 388 C144.01 388.33 143.02 388.66 142 389 C141.67 389.99 141.34 390.98 141 392 C139.68 392 138.36 392 137 392 C137 393.32 137 394.64 137 396 C138.65 396.33 140.3 396.66 142 397 C141.67 397.66 141.34 398.32 141 399 C139.35 399 137.7 399 136 399 C135.67 398.34 135.34 397.68 135 397 C133.02 396.67 131.04 396.34 129 396 C128.67 396.99 128.34 397.98 128 399 C129.65 399.33 131.3 399.66 133 400 C133.33 400.99 133.66 401.98 134 403 C135.32 403.33 136.64 403.66 138 404 C138 403.01 138 402.02 138 401 C138.99 401 139.98 401 141 401 C141.33 402.32 141.66 403.64 142 405 C142.99 405.33 143.98 405.66 145 406 C145.38 410.5 145.38 410.5 145 415 C144.01 415.33 143.02 415.66 142 416 C141.86 419.56 141.86 419.56 142.19 424 C142.28 425.46 142.38 426.93 142.48 428.44 C142.65 429.61 142.82 430.79 143 432 C143.66 432.33 144.32 432.66 145 433 C145.08 436.33 145.08 439.67 145 443 C144.01 443 143.02 443 142 443 C141.34 444.65 140.68 446.3 140 448 C139.34 447.67 138.68 447.34 138 447 C138 446.01 138 445.02 138 444 C136.68 444.33 135.36 444.66 134 445 C133.67 445.99 133.34 446.98 133 448 C131.68 448.33 130.36 448.66 129 449 C128.67 449.99 128.34 450.98 128 452 C124.34 452.12 120.66 452.13 117 452 C117 453.32 117 454.64 117 456 C111.52 456.11 106.04 456.19 100.56 456.25 C99 456.28 97.43 456.32 95.82 456.35 C91.88 456.39 87.94 456.21 84 456 C83.67 454.68 83.34 453.36 83 452 C80.69 452.33 78.38 452.66 76 453 C75.67 453.66 75.34 454.32 75 455 C72.69 455 70.38 455 68 455 C67.67 454.01 67.34 453.02 67 452 C69.64 452 72.28 452 75 452 C74.67 451.01 74.34 450.02 74 449 C72.35 449 70.7 449 69 449 C68.34 449.66 67.68 450.32 67 451 C65.68 451 64.36 451 63 451 C63 450.01 63 449.02 63 448 C64.32 448 65.64 448 67 448 C66.67 447.01 66.34 446.02 66 445 C64.68 444.67 63.36 444.34 62 444 C61.67 445.32 61.34 446.64 61 448 C60.34 447.67 59.68 447.34 59 447 C59 444.69 59 442.38 59 440 C59.99 440 60.98 440 62 440 C62 438.68 62 437.36 62 436 C60.68 436 59.36 436 58 436 C58 438.31 58 440.62 58 443 C57.01 442.67 56.02 442.34 55 442 C54.67 440.02 54.34 438.04 54 436 C38.16 436 22.32 436 6 436 C5.67 438.31 5.34 440.62 5 443 C4.01 443 3.02 443 2 443 C1.34 444.65 0.68 446.3 0 448 C-0.66 447.67 -1.32 447.34 -2 447 C-2 446.01 -2 445.02 -2 444 C-3.32 444.33 -4.64 444.66 -6 445 C-6.33 445.99 -6.66 446.98 -7 448 C-8.32 448.33 -9.64 448.66 -11 449 C-11.33 449.99 -11.66 450.98 -12 452 C-15.66 452.12 -19.34 452.13 -23 452 C-23 453.32 -23 454.64 -23 456 C-28.48 456.11 -33.96 456.19 -39.44 456.25 C-41 456.28 -42.57 456.32 -44.18 456.35 C-48.12 456.39 -52.06 456.21 -56 456 C-56.33 454.68 -56.66 453.36 -57 452 C-59.31 452.33 -61.62 452.66 -64 453 C-64.33 453.66 -64.66 454.32 -65 455 C-67.31 455 -69.62 455 -72 455 C-72.16 454.5 -72.16 454.5 -73 452 C-70.36 452 -67.72 452 -65 452 C-65.16 451.5 -65.16 451.5 -66 449 C-67.65 449 -69.3 449 -71 449 C-71.66 449.66 -72.32 450.32 -73 451 C-74.32 451 -75.64 451 -77 451 C-77 450.01 -77 449.02 -77 448 C-75.68 448 -74.36 448 -73 448 C-73.16 447.5 -73.16 447.5 -74 445 C-75.32 444.67 -76.64 444.34 -78 444 C-78.33 445.32 -78.66 446.64 -79 448 C-79.66 447.67 -80.32 447.34 -81 447 C-81 444.69 -81 442.38 -81 440 C-80.01 440 -79.02 440 -78 440 C-78 438.68 -78 437.36 -78 436 C-79.32 436 -80.64 436 -82 436 C-82 438.31 -82 440.62 -82 443 C-82.99 442.67 -83.98 442.34 -85 442 C-85.38 437.5 -85.38 437.5 -85 433 C-84.01 432.67 -83.02 432.34 -82 432 C-81.6 428.44 -81.6 428.44 -81.62 424 C-81.62 422.54 -81.61 421.07 -81.6 419.56 C-81.73 418.39 -81.86 417.21 -82 416 C-82.99 415.67 -83.98 415.34 -85 415 C-85 413.02 -85 411.04 -85 409 C-84.01 408.67 -83.02 408.34 -82 408 C-82 409.32 -82 410.64 -82 412 C-80.68 411.67 -79.36 411.34 -78 411 C-77.67 410.01 -77.34 409.02 -77 408 C-76.01 407.67 -75.02 407.34 -74 407 C-73.67 406.01 -73.34 405.02 -73 404 C-71.68 404 -70.36 404 -69 404 C-69 402.68 -69 401.36 -69 400 C-70.32 400 -71.64 400 -73 400 C-73.16 399.5 -73.16 399.5 -74 397 C-74.99 396.67 -75.98 396.34 -77 396 C-77.16 395.5 -77.16 395.5 -78 393 C-79.65 393 -81.3 393 -83 393 C-83.66 393.66 -84.32 394.32 -85 395 C-86.65 394.67 -88.3 394.34 -90 394 C-89.67 393.34 -89.34 392.68 -89 392 C-87.68 392 -86.36 392 -85 392 C-85 390.68 -85 389.36 -85 388 C-86.32 388 -87.64 388 -89 388 C-89 386.68 -89 385.36 -89 384 C-90.32 384 -91.64 384 -93 384 C-93.16 383.5 -93.16 383.5 -94 381 C-94.99 380.67 -95.98 380.34 -97 380 C-97.16 379.5 -97.16 379.5 -98 377 C-98.99 376.67 -99.98 376.34 -101 376 C-101.16 375.5 -101.16 375.5 -102 373 C-108.76 372.56 -115.48 372.56 -122.25 372.5 C-124.15 372.34 -126.05 372.17 -128 372 C-128.33 370.68 -128.66 369.36 -129 368 C-131.31 368.66 -133.62 369.32 -136 370 C-137.65 370.33 -139.3 370.66 -141 371 C-141 370.01 -141 369.02 -141 368 C-139.68 368 -138.36 368 -137 368 C-137 366.68 -137 365.36 -137 364 C-138.32 364 -139.64 364 -141 364 C-141.33 363.01 -141.66 362.02 -142 361 C-142.99 360.67 -143.98 360.34 -145 360 C-145.16 359.5 -145.16 359.5 -146 357 C-146.99 356.67 -147.98 356.34 -149 356 C-149.16 355.5 -149.16 355.5 -150 353 C-150.99 352.67 -151.98 352.34 -153 352 C-153.17 352.66 -153.17 352.66 -154 356 C-154.99 355.67 -155.98 355.34 -157 355 C-157 351.33 -157 347.67 -157 344 C-156.01 344 -155.02 344 -154 344 C-154 342.68 -154 341.36 -154 340 C-155.32 340 -156.64 340 -158 340 C-158 343.63 -158 347.26 -158 351 C-158.99 351 -159.98 351 -161 351 C-161.08 346.33 -161.08 341.67 -161 337 C-160.34 336.67 -159.68 336.34 -159 336 C-158.8 332 -158.74 328 -158.75 324 C-158.74 321.79 -158.74 319.59 -158.73 317.31 C-158.82 315.56 -158.91 313.81 -159 312 C-159.66 311.67 -160.32 311.34 -161 311 C-161.08 307.67 -161.08 304.33 -161 301 C-160.01 301 -159.02 301 -158 301 C-158 303.31 -158 305.62 -158 308 C-156.68 308 -155.36 308 -154 308 C-154 306.68 -154 305.36 -154 304 C-154.99 304 -155.98 304 -157 304 C-157 300.37 -157 296.74 -157 293 C-156.01 293 -155.02 293 -154 293 C-153.88 290.38 -153.75 287.76 -153.62 285.06 C-153.5 282.37 -153.31 279.68 -153 277 C-152.34 276.67 -151.68 276.34 -151 276 C-150.8 272.78 -150.74 269.54 -150.73 266.31 C-150.73 264.34 -150.73 262.36 -150.73 260.32 C-150.73 258.23 -150.74 256.15 -150.75 254 C-150.74 251.91 -150.73 249.83 -150.73 247.68 C-150.73 245.7 -150.73 243.72 -150.73 241.69 C-150.74 239.86 -150.74 238.02 -150.74 236.14 C-150.83 234.77 -150.91 233.41 -151 232 C-151.66 231.67 -152.32 231.34 -153 231 C-153.15 227.32 -153.17 223.62 -153.12 219.94 C-153.11 217.9 -153.09 215.87 -153.07 213.78 C-153.05 212.2 -153.02 210.62 -153 209 C-152.01 209 -151.02 209 -150 209 C-150 215.27 -150 221.54 -150 228 C-148.68 228 -147.36 228 -146 228 C-146 226.68 -146 225.36 -146 224 C-146.99 224 -147.98 224 -149 224 C-149 223.01 -149 222.02 -149 221 C-148.01 221 -147.02 221 -146 221 C-146.25 217.99 -146.59 214.99 -147 212 C-147.66 211.67 -148.32 211.34 -149 211 C-149.08 206.33 -149.08 201.67 -149 197 C-148.01 197 -147.02 197 -146 197 C-146 200.63 -146 204.26 -146 208 C-144.68 208 -143.36 208 -142 208 C-142 206.68 -142 205.36 -142 204 C-142.99 204 -143.98 204 -145 204 C-145 202 -145 202 -143 200 C-143.66 199.67 -144.32 199.34 -145 199 C-145.08 194.33 -145.08 189.67 -145 185 C-144.01 185 -143.02 185 -142 185 C-142 188.63 -142 192.26 -142 196 C-140.68 196 -139.36 196 -138 196 C-138 194.68 -138 193.36 -138 192 C-138.99 192 -139.98 192 -141 192 C-140.67 190.68 -140.34 189.36 -140 188 C-140.33 187.67 -140.66 187.34 -141 187 C-141.04 183.67 -141.04 180.33 -141 177 C-140.01 177 -139.02 177 -138 177 C-138 179.31 -138 181.62 -138 184 C-136.68 184 -135.36 184 -134 184 C-134 182.68 -134 181.36 -134 180 C-134.99 180 -135.98 180 -137 180 C-137 176.37 -137 172.74 -137 169 C-136.01 169 -135.02 169 -134 169 C-134 171.31 -134 173.62 -134 176 C-132.68 176 -131.36 176 -130 176 C-130 174.68 -130 173.36 -130 172 C-130.99 172 -131.98 172 -133 172 C-133 169.69 -133 167.38 -133 165 C-132.01 164.67 -131.02 164.34 -130 164 C-130 165.32 -130 166.64 -130 168 C-128.68 167.67 -127.36 167.34 -126 167 C-126 166.34 -126 165.68 -126 165 C-126.99 165 -127.98 165 -129 165 C-129 162.36 -129 159.72 -129 157 C-128.01 157 -127.02 157 -126 157 C-125.34 155.35 -124.68 153.7 -124 152 C-123.34 152 -122.68 152 -122 152 C-122 153.32 -122 154.64 -122 156 C-120.68 155.67 -119.36 155.34 -118 155 C-117.67 154.01 -117.34 153.02 -117 152 C-118.32 152.33 -119.64 152.66 -121 153 C-121 150.69 -121 148.38 -121 146 C-120.01 145.67 -119.02 145.34 -118 145 C-117.34 143.35 -116.68 141.7 -116 140 C-115.34 140.33 -114.68 140.66 -114 141 C-114 141.99 -114 142.98 -114 144 C-112.68 143.67 -111.36 143.34 -110 143 C-109.67 142.01 -109.34 141.02 -109 140 C-108.01 139.67 -107.02 139.34 -106 139 C-105.67 138.01 -105.34 137.02 -105 136 C-104.01 135.67 -103.02 135.34 -102 135 C-101.67 134.01 -101.34 133.02 -101 132 C-100.01 131.67 -99.02 131.34 -98 131 C-97.67 130.01 -97.34 129.02 -97 128 C-96.01 127.67 -95.02 127.34 -94 127 C-93.84 126.5 -93.84 126.5 -93 124 C-91.68 124 -90.36 124 -89 124 C-89 122.68 -89 121.36 -89 120 C-90.32 120 -91.64 120 -93 120 C-93 119.01 -93 118.02 -93 117 C-91.35 117 -89.7 117 -88 117 C-87.67 117.99 -87.34 118.98 -87 120 C-85.35 119.67 -83.7 119.34 -82 119 C-81.84 118.5 -81.84 118.5 -81 116 C-80.01 115.67 -79.02 115.34 -78 115 C-77.67 114.34 -77.34 113.68 -77 113 C-78.65 112.67 -80.3 112.34 -82 112 C-82 111.34 -82 110.68 -82 110 C-82.99 110 -83.98 110 -85 110 C-85 107.69 -85 105.38 -85 103 C-84.34 103.16 -84.34 103.16 -81 104 C-81.33 103.01 -81.66 102.02 -82 101 C-82.66 100.84 -82.66 100.84 -86 100 C-86 101.32 -86 102.64 -86 104 C-86.5 103.84 -86.5 103.84 -89 103 C-89 99.33 -89 95.67 -89 92 C-88.01 92 -87.02 92 -86 92 C-86 90.68 -86 89.36 -86 88 C-87.32 88 -88.64 88 -90 88 C-90 91.63 -90 95.26 -90 99 C-90.99 99 -91.98 99 -93 99 C-93.08 94.33 -93.08 89.67 -93 85 C-92.34 84.67 -91.68 84.34 -91 84 C-90.8 80.67 -90.74 77.33 -90.75 74 C-90.74 72.16 -90.74 70.33 -90.73 68.44 C-90.82 66.97 -90.91 65.51 -91 64 C-91.66 63.67 -92.32 63.34 -93 63 C-93.08 58.33 -93.08 53.67 -93 49 C-92.01 49 -91.02 49 -90 49 C-90 52.63 -90 56.26 -90 60 C-88.68 60 -87.36 60 -86 60 C-86 58.68 -86 57.36 -86 56 C-86.99 56 -87.98 56 -89 56 C-88.67 54.68 -88.34 53.36 -88 52 C-88.33 51.67 -88.66 51.34 -89 51 C-89 49.02 -89 47.04 -89 45 C-88.01 44.67 -87.02 44.34 -86 44 C-86 45.32 -86 46.64 -86 48 C-84.68 47.67 -83.36 47.34 -82 47 C-82 46.34 -82 45.68 -82 45 C-82.99 45 -83.98 45 -85 45 C-85 42.69 -85 40.38 -85 38 C-84.01 37.67 -83.02 37.34 -82 37 C-81.34 35.35 -80.68 33.7 -80 32 C-79.34 32.33 -78.68 32.66 -78 33 C-78 33.99 -78 34.98 -78 36 C-74 35 -74 35 -72 32 C-71.01 32 -70.02 32 -69 32 C-69 30.68 -69 29.36 -69 28 C-70.32 28 -71.64 28 -73 28 C-73 27.01 -73 26.02 -73 25 C-71.35 25 -69.7 25 -68 25 C-67.84 25.49 -67.84 25.49 -67 28 C-65.35 27.67 -63.7 27.34 -62 27 C-61.84 26.51 -61.84 26.51 -61 24 C-59.68 24 -58.36 24 -57 24 C-57 22.68 -57 21.36 -57 20 C-58.65 19.67 -60.3 19.34 -62 19 C-61.67 18.34 -61.34 17.68 -61 17 C-56 18 -56 18 -55 19 C-53.35 19 -51.7 19 -50 19 C-49.84 18.51 -49.84 18.51 -49 16 C-51.64 16 -54.28 16 -57 16 C-57 15.01 -57 14.02 -57 13 C-54.36 13 -51.72 13 -49 13 C-48.84 13.33 -48.84 13.33 -48 15 C-46.02 15 -44.04 15 -42 15 C-41.67 14.01 -41.34 13.02 -41 12 C-43.64 12 -46.28 12 -49 12 C-49 11.01 -49 10.02 -49 9 C-46.36 9 -43.72 9 -41 9 C-40.84 9.33 -40.84 9.33 -40 11 C-37.69 11.33 -35.38 11.66 -33 12 C-32.67 10.68 -32.34 9.36 -32 8 C-28.33 8 -24.67 8 -21 8 C-20.67 6.68 -20.34 5.36 -20 4 C-15.03 3.71 -10.19 4.01 -5.22 4.25 C-3.83 4.17 -2.43 4.09 -1 4 C-0.67 2.68 -0.34 1.36 0 0 Z M-82 39 C-81.67 40.65 -81.34 42.3 -81 44 C-79.68 43.67 -78.36 43.34 -77 43 C-77.33 42.01 -77.66 41.02 -78 40 C-79.32 39.67 -80.64 39.34 -82 39 Z M133 45 C133.33 45.99 133.66 46.98 134 48 C135.32 48 136.64 48 138 48 C138 46.35 138 44.7 138 43 C137 43 137 43 133 45 Z M134 100 C134 101.32 134 102.64 134 104 C134.66 104.17 134.66 104.17 138 105 C138 103.35 138 101.7 138 100 C136.68 100 135.36 100 134 100 Z M-81 104 C-81.33 105.32 -81.66 106.64 -82 108 C-80.35 107.67 -78.7 107.34 -77 107 C-77.33 106.01 -77.66 105.02 -78 104 C-78.99 104 -79.98 104 -81 104 Z M129 108 C129 109.32 129 110.64 129 112 C130.32 112 131.64 112 133 112 C133.33 110.68 133.66 109.36 134 108 C132.35 108 130.7 108 129 108 Z M-118 147 C-117.67 148.65 -117.34 150.3 -117 152 C-115.68 151.67 -114.36 151.34 -113 151 C-113.33 150.01 -113.66 149.02 -114 148 C-115.32 147.67 -116.64 147.34 -118 147 Z M173 153 C173.33 153.99 173.66 154.98 174 156 C174.99 156 175.98 156 177 156 C177.33 154.35 177.66 152.7 178 151 C177 151 177 151 173 153 Z M-126 159 C-125.67 160.65 -125.34 162.3 -125 164 C-123.68 163.67 -122.36 163.34 -121 163 C-121.33 162.01 -121.66 161.02 -122 160 C-123.32 159.67 -124.64 159.34 -126 159 Z M181 165 C181.33 165.99 181.66 166.98 182 168 C183.32 168 184.64 168 186 168 C186 166.35 186 164.7 186 163 C185 163 185 163 181 165 Z M186 172 C185.67 172.99 185.34 173.98 185 175 C185.82 175.16 185.82 175.16 190 176 C190 174.35 190 172.7 190 171 C189 171 189 171 186 172 Z M190 180 C189.67 180.99 189.34 181.98 189 183 C189.82 183.16 189.82 183.16 194 184 C194 182.35 194 180.7 194 179 C193 179 193 179 190 180 Z M-150 280 C-150 281.65 -150 283.3 -150 285 C-148.68 284.67 -147.36 284.34 -146 284 C-146 282.68 -146 281.36 -146 280 C-147.32 280 -148.64 280 -150 280 Z M-150 287 C-150 288.65 -150 290.3 -150 292 C-148.68 292 -147.36 292 -146 292 C-146 290.68 -146 289.36 -146 288 C-147.32 287.67 -148.64 287.34 -150 287 Z M202 288 C202 289.32 202 290.64 202 292 C202.99 292 203.98 292 205 292 C205.33 290.68 205.66 289.36 206 288 C204.68 288 203.36 288 202 288 Z M-154 295 C-154 296.65 -154 298.3 -154 300 C-152.35 299.67 -150.7 299.34 -149 299 C-149.33 298.01 -149.66 297.02 -150 296 C-151.32 295.67 -152.64 295.34 -154 295 Z M137 409 C137.33 409.99 137.66 410.98 138 412 C139.32 412 140.64 412 142 412 C142 410.35 142 408.7 142 407 C141 407 141 407 137 409 Z M2 428 C2 429.32 2 430.64 2 432 C20.48 432 38.96 432 58 432 C58 430.68 58 429.36 58 428 C39.52 428 21.04 428 2 428 Z M-2 436 C-2.33 436.66 -2.66 437.32 -3 438 C-2.67 438.66 -2.34 439.32 -2 440 C-1.34 440.17 -1.34 440.17 2 441 C2 439.35 2 437.7 2 436 C0.68 436 -0.64 436 -2 436 Z M138 436 C137.67 436.66 137.34 437.32 137 438 C137.33 438.66 137.66 439.32 138 440 C138.66 440.17 138.66 440.17 142 441 C142 439.35 142 437.7 142 436 C140.68 436 139.36 436 138 436 Z " fill="#6ECFDC" transform="translate(228,30)"/>
<path d="M0 0 C2 3 2 3 2 6 C3.65 5.34 5.3 4.68 7 4 C8.98 4.33 10.96 4.66 13 5 C13.33 6.32 13.66 7.64 14 9 C14.99 9 15.98 9 17 9 C17 11.64 17 14.28 17 17 C17.99 16.67 18.98 16.34 20 16 C22.31 16 24.62 16 27 16 C27.33 16.99 27.66 17.98 28 19 C29.32 19.33 30.64 19.66 32 20 C32 18.68 32 17.36 32 16 C32.99 16 33.98 16 35 16 C35 18.64 35 21.28 35 24 C34.01 24 33.02 24 32 24 C32 25.32 32 26.64 32 28 C33.32 28 34.64 28 36 28 C36 25.69 36 23.38 36 21 C36.99 21 37.98 21 39 21 C39.19 25.94 39.19 25.94 39 31 C38.01 31.33 37.02 31.66 36 32 C35.89 37.38 35.96 42.63 36.19 48 C36.23 49.51 36.28 51.03 36.32 52.59 C36.46 56.39 36.72 60.2 37 64 C37.66 64.33 38.32 64.66 39 65 C39.08 68.33 39.08 71.67 39 75 C38.01 75 37.02 75 36 75 C36 72.69 36 70.38 36 68 C34.68 68 33.36 68 32 68 C32 69.32 32 70.64 32 72 C32.99 72 33.98 72 35 72 C35 74.31 35 76.62 35 79 C34.5 79.16 34.5 79.16 32 80 C32 78.68 32 77.36 32 76 C30.68 76.33 29.36 76.66 28 77 C27.67 77.99 27.34 78.98 27 80 C26.5 80.16 26.5 80.16 24 81 C23.67 81.99 23.34 82.98 23 84 C22.5 84.16 22.5 84.16 20 85 C19.67 85.99 19.34 86.98 19 88 C18.5 88.16 18.5 88.16 16 89 C15.67 89.99 15.34 90.98 15 92 C16.65 92.33 18.3 92.66 20 93 C19.67 93.66 19.34 94.32 19 95 C17.68 95 16.36 95 15 95 C14.67 94.34 14.34 93.68 14 93 C11.69 92.67 9.38 92.34 7 92 C7 93.32 7 94.64 7 96 C6.03 96.02 6.03 96.02 1.13 96.11 C-1.37 96.18 -3.86 96.24 -6.44 96.31 C-7.68 96.34 -7.68 96.34 -14 96.49 C-15.98 96.66 -17.96 96.83 -20 97 C-20.33 97.99 -20.66 98.98 -21 100 C-21.5 100.16 -21.5 100.16 -24 101 C-24.33 101.99 -24.66 102.98 -25 104 C-25.5 104.16 -25.5 104.16 -28 105 C-28.33 105.99 -28.66 106.98 -29 108 C-29.5 108.16 -29.5 108.16 -32 109 C-32.33 109.99 -32.66 110.98 -33 112 C-33.5 112.16 -33.5 112.16 -36 113 C-36.33 113.99 -36.66 114.98 -37 116 C-38.32 116 -39.64 116 -41 116 C-41 117.32 -41 118.64 -41 120 C-39.35 120.33 -37.7 120.66 -36 121 C-36.33 121.66 -36.66 122.32 -37 123 C-38.65 123 -40.3 123 -42 123 C-42.33 122.34 -42.66 121.68 -43 121 C-44.98 120.67 -46.96 120.34 -49 120 C-49.33 120.99 -49.66 121.98 -50 123 C-48.35 123.33 -46.7 123.66 -45 124 C-44.67 124.99 -44.34 125.98 -44 127 C-42.68 127.33 -41.36 127.66 -40 128 C-40 127.01 -40 126.02 -40 125 C-39.01 125 -38.02 125 -37 125 C-36.67 126.32 -36.34 127.64 -36 129 C-35.01 129.33 -34.02 129.66 -33 130 C-32.62 134.5 -32.62 134.5 -33 139 C-33.99 139.33 -34.98 139.66 -36 140 C-36.14 143.56 -36.14 143.56 -35.81 148 C-35.72 149.46 -35.62 150.93 -35.52 152.44 C-35.43 153.03 -35.43 153.03 -35 156 C-34.34 156.33 -33.68 156.66 -33 157 C-32.92 160.33 -32.92 163.67 -33 167 C-33.99 167 -34.98 167 -36 167 C-36.66 168.65 -37.32 170.3 -38 172 C-38.66 171.67 -39.32 171.34 -40 171 C-40 170.01 -40 169.02 -40 168 C-41.32 168.33 -42.64 168.66 -44 169 C-44.33 169.99 -44.66 170.98 -45 172 C-46.32 172.33 -47.64 172.66 -49 173 C-49.33 173.99 -49.66 174.98 -50 176 C-53.66 176.12 -57.34 176.13 -61 176 C-61 177.32 -61 178.64 -61 180 C-66.48 180.11 -71.96 180.19 -77.44 180.25 C-79 180.28 -80.57 180.32 -82.18 180.35 C-86.12 180.39 -90.06 180.21 -94 180 C-94.33 178.68 -94.66 177.36 -95 176 C-97.31 176.33 -99.62 176.66 -102 177 C-102.33 177.66 -102.66 178.32 -103 179 C-105.31 179 -107.62 179 -110 179 C-110.33 178.01 -110.66 177.02 -111 176 C-108.36 176 -105.72 176 -103 176 C-103.33 175.01 -103.66 174.02 -104 173 C-105.65 173 -107.3 173 -109 173 C-109.66 173.66 -110.32 174.32 -111 175 C-112.32 175 -113.64 175 -115 175 C-115 174.01 -115 173.02 -115 172 C-113.68 172 -112.36 172 -111 172 C-111.33 171.01 -111.66 170.02 -112 169 C-113.32 168.67 -114.64 168.34 -116 168 C-116.33 169.32 -116.66 170.64 -117 172 C-117.66 171.67 -118.32 171.34 -119 171 C-119 168.69 -119 166.38 -119 164 C-118.01 164 -117.02 164 -116 164 C-116 162.68 -116 161.36 -116 160 C-117.32 160 -118.64 160 -120 160 C-120 162.31 -120 164.62 -120 167 C-120.99 166.67 -121.98 166.34 -123 166 C-123.33 164.02 -123.66 162.04 -124 160 C-139.84 160 -155.68 160 -172 160 C-172.33 162.31 -172.66 164.62 -173 167 C-173.99 167 -174.98 167 -176 167 C-176.66 168.65 -177.32 170.3 -178 172 C-178.66 171.67 -179.32 171.34 -180 171 C-180 170.01 -180 169.02 -180 168 C-181.32 168.33 -182.64 168.66 -184 169 C-184.33 169.99 -184.66 170.98 -185 172 C-186.32 172.33 -187.64 172.66 -189 173 C-189.33 173.99 -189.66 174.98 -190 176 C-193.66 176.12 -197.34 176.13 -201 176 C-201 177.32 -201 178.64 -201 180 C-206.48 180.11 -211.96 180.19 -217.44 180.25 C-219 180.28 -220.57 180.32 -222.18 180.35 C-226.12 180.39 -230.06 180.21 -234 180 C-234.33 178.68 -234.66 177.36 -235 176 C-237.31 176.33 -239.62 176.66 -242 177 C-242.33 177.66 -242.66 178.32 -243 179 C-245.31 179 -247.62 179 -250 179 C-250.33 178.01 -250.66 177.02 -251 176 C-248.36 176 -245.72 176 -243 176 C-243.33 175.01 -243.66 174.02 -244 173 C-245.65 173 -247.3 173 -249 173 C-249.66 173.66 -250.32 174.32 -251 175 C-252.32 175 -253.64 175 -255 175 C-255 174.01 -255 173.02 -255 172 C-253.68 172 -252.36 172 -251 172 C-251.33 171.01 -251.66 170.02 -252 169 C-253.32 168.67 -254.64 168.34 -256 168 C-256.33 169.32 -256.66 170.64 -257 172 C-257.66 171.67 -258.32 171.34 -259 171 C-259 168.69 -259 166.38 -259 164 C-258.01 164 -257.02 164 -256 164 C-256 162.68 -256 161.36 -256 160 C-257.32 160 -258.64 160 -260 160 C-260 162.31 -260 164.62 -260 167 C-260.99 166.67 -261.98 166.34 -263 166 C-263.38 161.5 -263.38 161.5 -263 157 C-262.01 156.67 -261.02 156.34 -260 156 C-259.6 152.44 -259.6 152.44 -259.62 148 C-259.62 146.54 -259.61 145.07 -259.6 143.56 C-259.73 142.39 -259.86 141.21 -260 140 C-260.99 139.67 -261.98 139.34 -263 139 C-263 137.02 -263 135.04 -263 133 C-262.01 132.67 -261.02 132.34 -260 132 C-260 133.32 -260 134.64 -260 136 C-258.68 135.67 -257.36 135.34 -256 135 C-255.67 134.01 -255.34 133.02 -255 132 C-254.01 131.67 -253.02 131.34 -252 131 C-251.67 130.01 -251.34 129.02 -251 128 C-249.68 128 -248.36 128 -247 128 C-247 126.68 -247 125.36 -247 124 C-248.32 124 -249.64 124 -251 124 C-251.33 123.01 -251.66 122.02 -252 121 C-252.5 120.84 -252.5 120.84 -255 120 C-255.33 119.01 -255.66 118.02 -256 117 C-257.65 117 -259.3 117 -261 117 C-261.66 117.66 -262.32 118.32 -263 119 C-264.65 118.67 -266.3 118.34 -268 118 C-267.67 117.34 -267.34 116.68 -267 116 C-265.68 116 -264.36 116 -263 116 C-263 114.68 -263 113.36 -263 112 C-264.32 112 -265.64 112 -267 112 C-267 110.68 -267 109.36 -267 108 C-268.32 108 -269.64 108 -271 108 C-271.33 107.01 -271.66 106.02 -272 105 C-272.5 104.84 -272.5 104.84 -275 104 C-275.33 103.01 -275.66 102.02 -276 101 C-276.99 100.67 -277.98 100.34 -279 100 C-279.33 99.01 -279.66 98.02 -280 97 C-286.76 96.56 -293.48 96.56 -300.25 96.5 C-302.15 96.34 -304.05 96.17 -306 96 C-306.33 94.68 -306.66 93.36 -307 92 C-308.15 92.33 -308.15 92.33 -314 94 C-314.82 94.16 -314.82 94.16 -319 95 C-319 94.01 -319 93.02 -319 92 C-317.68 92 -316.36 92 -315 92 C-315 90.68 -315 89.36 -315 88 C-316.32 88 -317.64 88 -319 88 C-319.33 87.01 -319.66 86.02 -320 85 C-320.5 84.84 -320.5 84.84 -323 84 C-323.33 83.01 -323.66 82.02 -324 81 C-324.99 80.67 -325.98 80.34 -327 80 C-327.33 79.01 -327.66 78.02 -328 77 C-328.99 76.67 -329.98 76.34 -331 76 C-331.33 77.32 -331.66 78.64 -332 80 C-332.99 79.67 -333.98 79.34 -335 79 C-335 75.33 -335 71.67 -335 68 C-334.01 68 -333.02 68 -332 68 C-332 66.68 -332 65.36 -332 64 C-333.32 64 -334.64 64 -336 64 C-336 67.63 -336 71.26 -336 75 C-336.99 75 -337.98 75 -339 75 C-339.08 70.33 -339.08 65.67 -339 61 C-338.67 60.83 -338.67 60.83 -337 60 C-336.8 56 -336.74 52 -336.75 48 C-336.74 45.79 -336.74 43.59 -336.73 41.31 C-336.82 39.56 -336.91 37.81 -337 36 C-337.66 35.67 -338.32 35.34 -339 35 C-339.08 31.67 -339.08 28.33 -339 25 C-338.01 25 -337.02 25 -336 25 C-336 27.31 -336 29.62 -336 32 C-334.68 32 -333.36 32 -332 32 C-332 30.68 -332 29.36 -332 28 C-332.99 28 -333.98 28 -335 28 C-335 24.37 -335 20.74 -335 17 C-334.01 17 -333.02 17 -332 17 C-330.16 13.32 -330.36 9.05 -330 5 C-329.34 5 -328.68 5 -328 5 C-328 6.32 -328 7.64 -328 9 C-327.01 9 -326.02 9 -325 9 C-324.67 9.99 -324.34 10.98 -324 12 C-324.99 12 -325.98 12 -327 12 C-327.33 13.32 -327.66 14.64 -328 16 C-326.68 15.67 -325.36 15.34 -324 15 C-323.67 14.34 -323.34 13.68 -323 13 C-321.02 13 -319.04 13 -317 13 C-316.67 11.35 -316.34 9.7 -316 8 C-314.68 8 -313.36 8 -312 8 C-311.01 7.01 -310.02 6.02 -309 5 C-300.15 1.21 -295.48 1.92 -286 3 C-285.34 3.99 -284.68 4.98 -284 6 C-282.66 6.1 -281.32 6.21 -279.94 6.31 C-271.03 7.55 -264.78 13.36 -259 20 C-259 21.32 -259 22.64 -259 24 C-257.68 24 -256.36 24 -255 24 C-246.7 35.23 -247.88 46.66 -248 60 C-246.68 60 -245.36 60 -244 60 C-244 62.31 -244 64.62 -244 67 C-243.34 67 -242.68 67 -242 67 C-239.69 71.25 -237.8 75.51 -236 80 C-234.68 81.32 -233.36 82.64 -232 84 C-230.45 86.04 -228.91 88.08 -227.31 90.19 C-219.67 100.21 -211.13 108.91 -200 115 C-199.01 115.66 -198.02 116.32 -197 117 C-197 117.99 -197 118.98 -197 120 C-194.69 120 -192.38 120 -190 120 C-189.34 120.66 -188.68 121.32 -188 122 C-185 122.34 -182 122.67 -179 123 C-178.01 123.66 -177.02 124.32 -176 125 C-164.32 125.94 -152.65 126.14 -140.94 126.25 C-139.64 126.26 -139.64 126.26 -133.09 126.33 C-126.73 126.03 -121.97 125.05 -116 123 C-114.68 123 -113.36 123 -112 123 C-111.67 122.34 -111.67 122.34 -110 119 C-108.85 118.84 -108.85 118.84 -103 118 C-102.67 117.5 -102.67 117.5 -101 115 C-100.18 114.67 -100.18 114.67 -96 113 C-95.67 112.34 -95.34 111.68 -95 111 C-92.08 109.25 -89.14 107.51 -86.19 105.81 C-81.5 102.66 -77.89 99.08 -74 95 C-69 90 -64 85 -59 80 C-59 78.68 -59 77.36 -59 76 C-58.34 74.68 -57.68 73.36 -57 72 C-56.88 71.35 -56.88 71.35 -56.25 68.06 C-55 64 -55 64 -49 59 C-49.33 57.68 -49.66 56.36 -50 55 C-50.14 52.11 -50.22 49.21 -50.25 46.31 C-50.28 44.78 -50.3 43.25 -50.33 41.68 C-50.27 41.07 -50.27 41.07 -50 38 C-49.5 37.83 -49.5 37.83 -47 37 C-47 35.02 -47 33.04 -47 31 C-45.22 22.23 -40.74 18.62 -34 13 C-32.82 11.74 -31.65 10.48 -30.44 9.19 C-22.02 1.38 -11.19 0 0 0 Z M-332 19 C-332 20.65 -332 22.3 -332 24 C-330.35 23.67 -328.7 23.34 -327 23 C-327.33 22.01 -327.66 21.02 -328 20 C-329.32 19.67 -330.64 19.34 -332 19 Z M-41 133 C-40.67 133.99 -40.34 134.98 -40 136 C-38.68 136 -37.36 136 -36 136 C-36 134.35 -36 132.7 -36 131 C-37 131 -37 131 -41 133 Z M-176 152 C-176 153.32 -176 154.64 -176 156 C-157.52 156 -139.04 156 -120 156 C-120 154.68 -120 153.36 -120 152 C-138.48 152 -156.96 152 -176 152 Z M-180 160 C-180.33 160.66 -180.66 161.32 -181 162 C-180.67 162.66 -180.34 163.32 -180 164 C-179.34 164.16 -179.34 164.16 -176 165 C-176 163.35 -176 161.7 -176 160 C-177.32 160 -178.64 160 -180 160 Z M-40 160 C-40.33 160.66 -40.66 161.32 -41 162 C-40.67 162.66 -40.34 163.32 -40 164 C-39.34 164.16 -39.34 164.16 -36 165 C-36 163.35 -36 161.7 -36 160 C-37.32 160 -38.64 160 -40 160 Z " fill="#57B2CA" transform="translate(406,306)"/>
<path d="M0 0 C1 0.01 1 0.01 6.06 0.04 C8.06 0.05 10.06 0.06 12.12 0.06 C17.06 0.23 17.06 0.23 19.06 1.23 C19.9 1.31 19.9 1.31 24.12 1.73 C29.06 2.23 29.06 2.23 30.06 3.23 C30.7 3.29 30.7 3.29 33.94 3.61 C38.06 4.23 38.06 4.23 41.06 7.23 C41.73 7.3 41.73 7.3 45.12 7.67 C46.42 7.85 47.72 8.04 49.06 8.23 C49.39 8.89 49.39 8.89 51.06 12.23 C53.7 12.23 56.34 12.23 59.06 12.23 C59.39 13.22 59.72 14.21 60.06 15.23 C60.72 15.4 60.72 15.4 64.06 16.23 C69.73 19.06 72.05 21.01 76.12 25.61 C79.69 29.6 83.27 33.44 87.06 37.23 C88.74 40.22 90.41 43.22 92.06 46.23 C93.05 46.89 94.04 47.55 95.06 48.23 C95.44 51.22 95.77 54.23 96.06 57.23 C96.72 58.22 97.38 59.21 98.06 60.23 C98.06 61.22 98.06 62.21 98.06 63.23 C99.05 63.56 100.04 63.89 101.06 64.23 C102.79 72.02 102.21 80.22 102.19 88.17 C102.19 89.6 102.2 91.04 102.2 92.51 C102.19 103.1 102.19 103.1 101.06 104.23 C100.73 106.54 100.4 108.85 100.06 111.23 C99.4 111.23 98.74 111.23 98.06 111.23 C98.06 113.54 98.06 115.85 98.06 118.23 C96.25 121.86 96.25 121.86 94.06 125.23 C93.07 126.88 92.08 128.53 91.06 130.23 C90.4 130.56 90.4 130.56 87.06 132.23 C86.73 133.22 86.73 133.22 85.06 138.23 C83.41 139.88 81.76 141.53 80.06 143.23 C78.43 144.92 76.8 146.61 75.12 148.36 C69.96 153.33 65.65 155.59 59.06 158.23 C58.73 159.22 58.4 160.21 58.06 161.23 C57.24 161.56 57.24 161.56 53.06 163.23 C52.4 164.22 51.74 165.21 51.06 166.23 C48.75 167.22 46.44 168.21 44.06 169.23 C43.4 169.89 42.74 170.55 42.06 171.23 C37.73 171.93 33.4 172.6 29.06 173.23 C28.73 173.56 28.4 173.89 28.06 174.23 C22.08 174.39 16.11 174.46 10.12 174.48 C8.45 174.5 6.77 174.52 5.04 174.54 C-3.54 174.57 -10.8 174.3 -18.94 171.23 C-21.94 170.56 -24.94 169.89 -27.94 169.23 C-28.6 168.9 -29.26 168.57 -29.94 168.23 C-29.94 167.57 -29.94 166.91 -29.94 166.23 C-31.92 166.23 -33.9 166.23 -35.94 166.23 C-36.93 165.24 -37.92 164.25 -38.94 163.23 C-41.25 162.9 -43.56 162.57 -45.94 162.23 C-45.94 160.91 -45.94 159.59 -45.94 158.23 C-47.59 158.23 -49.24 158.23 -50.94 158.23 C-51.27 157.57 -51.27 157.57 -52.94 154.23 C-54.59 153.9 -56.24 153.57 -57.94 153.23 C-62.91 148.72 -66.43 145.51 -68.94 139.23 C-70.26 138.9 -71.58 138.57 -72.94 138.23 C-77.94 132.23 -77.94 132.23 -77.94 130.23 C-79.26 129.57 -80.58 128.91 -81.94 128.23 C-83.67 124.26 -84.89 120.43 -85.94 116.23 C-86.6 116.23 -87.26 116.23 -87.94 116.23 C-88.27 113.92 -88.6 111.61 -88.94 109.23 C-89.27 108.9 -89.6 108.57 -89.94 108.23 C-91.51 94.25 -91.37 80.22 -89.94 66.23 C-89.77 66.07 -89.77 66.07 -88.94 65.23 C-88.67 63.89 -88.4 62.55 -88.12 61.17 C-85.97 52.21 -81.3 45.63 -75.94 38.23 C-74.95 36.79 -73.96 35.34 -72.94 33.86 C-69.84 30.12 -67.19 28.44 -62.94 26.23 C-62.28 25.24 -61.62 24.25 -60.94 23.23 C-58.96 22.24 -56.98 21.25 -54.94 20.23 C-54.11 19.41 -54.11 19.41 -49.94 15.23 C-48.29 14.24 -46.64 13.25 -44.94 12.23 C-43.95 11.57 -42.96 10.91 -41.94 10.23 C-40.72 10.11 -39.5 9.98 -38.25 9.86 C-33.49 9.17 -28.46 7.75 -24.94 4.23 C-20.31 3.69 -15.67 3.26 -11.04 2.83 C-5.82 2.07 -5.53 0.26 0 0 Z " fill="#C5F5ED" transform="translate(249.9375,256.76953125)"/>
<path d="M0 0 C4.87 -0.52 4.87 -0.52 11.44 -0.53 C13.78 -0.54 16.11 -0.54 18.52 -0.55 C19.76 -0.54 19.76 -0.54 26 -0.5 C28.47 -0.52 30.93 -0.53 33.48 -0.55 C35.81 -0.54 38.15 -0.54 40.56 -0.53 C41.65 -0.53 41.65 -0.53 47.13 -0.52 C48.74 -0.35 50.34 -0.18 52 0 C52.33 1.32 52.66 2.64 53 4 C57.22 4.25 57.22 4.25 62.5 4 C67.78 3.75 67.78 3.75 72 4 C72.33 5.32 72.66 6.64 73 8 C74.81 8 76.63 8 78.5 8 C80.31 8 82.13 8 84 8 C84.33 9.32 84.66 10.64 85 12 C88.67 12.04 92.33 12.04 96 12 C96.33 12.99 96.66 13.98 97 15 C98.98 15 100.96 15 103 15 C103.33 14.34 103.66 13.68 104 13 C105.65 13 107.3 13 109 13 C109 13.99 109 14.98 109 16 C107.35 16 105.7 16 104 16 C104.33 16.99 104.66 17.98 105 19 C106.32 19.33 107.64 19.66 109 20 C109.33 20.99 109.66 21.98 110 23 C111.65 23.33 113.3 23.66 115 24 C115.33 23.01 115.66 22.02 116 21 C117.65 21 119.3 21 121 21 C121 21.99 121 22.98 121 24 C119.68 24.66 118.36 25.32 117 26 C117 26.66 117 27.32 117 28 C118.32 28.33 119.64 28.66 121 29 C121.33 29.66 121.66 30.32 122 31 C122.99 31.33 123.98 31.66 125 32 C125.33 32.99 125.66 33.98 126 35 C126.99 35.33 127.98 35.66 129 36 C129.33 36.99 129.66 37.98 130 39 C131.32 39.33 132.64 39.66 134 40 C134.33 38.68 134.66 37.36 135 36 C135.66 36.33 136.32 36.66 137 37 C137.33 38.32 137.66 39.64 138 41 C138.99 41.33 139.98 41.66 141 42 C141.19 47.06 141.19 47.06 141 52 C140.01 52 139.02 52 138 52 C138 53.32 138 54.64 138 56 C139.32 56 140.64 56 142 56 C142 53.69 142 51.38 142 49 C142.99 49 143.98 49 145 49 C145.08 52.33 145.08 55.67 145 59 C144.67 59.16 144.67 59.16 143 60 C142.8 64.66 142.74 69.33 142.75 74 C142.74 76.58 142.74 79.16 142.73 81.81 C142.82 83.85 142.91 85.9 143 88 C143.66 88.33 144.32 88.66 145 89 C145.08 92.33 145.08 95.67 145 99 C144.01 99 143.02 99 142 99 C142 96.69 142 94.38 142 92 C140.68 92 139.36 92 138 92 C138 93.32 138 94.64 138 96 C138.99 96 139.98 96 141 96 C141 99.63 141 103.26 141 107 C140.01 107 139.02 107 138 107 C137.67 107.66 137.34 108.32 137 109 C138.32 109.33 139.64 109.66 141 110 C141 110.66 141 111.32 141 112 C138.36 112 135.72 112 133 112 C133.33 110.68 133.66 109.36 134 108 C132.35 108 130.7 108 129 108 C129 108.66 129 109.32 129 110 C126.69 110 124.38 110 122 110 C121.34 108.35 120.68 106.7 120 105 C119.01 105 118.02 105 117 105 C116.67 104.01 116.34 103.02 116 102 C113.69 101.34 111.38 100.68 109 100 C108.67 99.34 108.34 98.68 108 98 C105.69 97.34 103.38 96.68 101 96 C100.34 95.34 99.68 94.68 99 94 C98 93.95 98 93.95 92.94 93.69 C85.86 92.99 83.04 91.39 77 88 C72.36 87.19 67.69 86.5 63 86 C63 85.01 63 84.02 63 83 C50.11 82.17 37.28 81.89 24.38 81.88 C23.6 81.87 23.6 81.87 19.67 81.86 C-1.89 81.89 -1.89 81.89 -5 85 C-7.31 85 -9.62 85 -12 85 C-12.16 85.5 -12.16 85.5 -13 88 C-20 90 -20 90 -24.25 90.44 C-28 91 -28 91 -31 94 C-34 94.33 -37 94.67 -40 95 C-40.99 95.99 -41.98 96.98 -43 98 C-44.16 98.16 -44.16 98.16 -50 99 C-51.65 99.99 -53.3 100.98 -55 102 C-60 105 -60 105 -64 105 C-65.06 107.64 -66.1 110.3 -67 113 C-69.67 112.73 -72.34 112.39 -75 112 C-75.99 112.16 -75.99 112.16 -81 113 C-81.33 112.01 -81.66 111.02 -82 110 C-82.99 110 -83.98 110 -85 110 C-85 107.69 -85 105.38 -85 103 C-83.68 103.33 -82.36 103.66 -81 104 C-81.33 103.01 -81.66 102.02 -82 101 C-83.32 100.67 -84.64 100.34 -86 100 C-86 101.32 -86 102.64 -86 104 C-86.99 103.67 -87.98 103.34 -89 103 C-89 99.33 -89 95.67 -89 92 C-88.01 92 -87.02 92 -86 92 C-86 90.68 -86 89.36 -86 88 C-87.32 88 -88.64 88 -90 88 C-90 91.63 -90 95.26 -90 99 C-90.99 99 -91.98 99 -93 99 C-93.08 94.33 -93.08 89.67 -93 85 C-92.67 84.84 -92.67 84.84 -91 84 C-90.8 80.67 -90.74 77.33 -90.75 74 C-90.75 73.08 -90.75 73.08 -90.73 68.44 C-90.82 66.97 -90.91 65.51 -91 64 C-91.66 63.67 -92.32 63.34 -93 63 C-93.08 58.33 -93.08 53.67 -93 49 C-92.01 49 -91.02 49 -90 49 C-90 52.63 -90 56.26 -90 60 C-88.68 60 -87.36 60 -86 60 C-86 58.68 -86 57.36 -86 56 C-86.99 56 -87.98 56 -89 56 C-88.67 54.68 -88.34 53.36 -88 52 C-88.33 51.67 -88.66 51.34 -89 51 C-89 49.02 -89 47.04 -89 45 C-88.5 44.84 -88.5 44.84 -86 44 C-86 45.32 -86 46.64 -86 48 C-85.34 47.84 -85.34 47.84 -82 47 C-82 46.34 -82 45.68 -82 45 C-82.99 45 -83.98 45 -85 45 C-85 42.69 -85 40.38 -85 38 C-84.5 37.84 -84.5 37.84 -82 37 C-81.34 35.35 -80.68 33.7 -80 32 C-79.34 32.33 -78.68 32.66 -78 33 C-78 33.99 -78 34.98 -78 36 C-74 35 -74 35 -72 32 C-71.01 32 -70.02 32 -69 32 C-69 30.68 -69 29.36 -69 28 C-70.32 28 -71.64 28 -73 28 C-73 27.01 -73 26.02 -73 25 C-71.35 25 -69.7 25 -68 25 C-67.67 25.99 -67.34 26.98 -67 28 C-65.35 27.67 -63.7 27.34 -62 27 C-61.67 26.01 -61.34 25.02 -61 24 C-59.68 24 -58.36 24 -57 24 C-57 22.68 -57 21.36 -57 20 C-58.65 19.67 -60.3 19.34 -62 19 C-61.67 18.34 -61.34 17.68 -61 17 C-56 18 -56 18 -55 19 C-53.35 19 -51.7 19 -50 19 C-49.84 18.51 -49.84 18.51 -49 16 C-51.64 16 -54.28 16 -57 16 C-57 15.01 -57 14.02 -57 13 C-54.36 13 -51.72 13 -49 13 C-48.84 13.33 -48.84 13.33 -48 15 C-46.02 15 -44.04 15 -42 15 C-41.67 14.01 -41.34 13.02 -41 12 C-43.64 12 -46.28 12 -49 12 C-49 11.01 -49 10.02 -49 9 C-46.36 9 -43.72 9 -41 9 C-40.84 9.33 -40.84 9.33 -40 11 C-37.69 11.33 -35.38 11.66 -33 12 C-32.67 10.68 -32.34 9.36 -32 8 C-28.33 8 -24.67 8 -21 8 C-20.67 6.68 -20.34 5.36 -20 4 C-15.03 3.71 -10.19 4.01 -5.22 4.25 C-3.83 4.17 -2.43 4.09 -1 4 C-0.67 2.68 -0.34 1.36 0 0 Z M-82 39 C-81.67 40.65 -81.34 42.3 -81 44 C-79.68 43.67 -78.36 43.34 -77 43 C-77.33 42.01 -77.66 41.02 -78 40 C-79.32 39.67 -80.64 39.34 -82 39 Z M133 45 C133.33 45.99 133.66 46.98 134 48 C135.32 48 136.64 48 138 48 C138 46.35 138 44.7 138 43 C137 43 137 43 133 45 Z M134 100 C134 101.32 134 102.64 134 104 C134.66 104.17 134.66 104.17 138 105 C138 103.35 138 101.7 138 100 C136.68 100 135.36 100 134 100 Z M-81 104 C-81.33 105.32 -81.66 106.64 -82 108 C-80.35 107.67 -78.7 107.34 -77 107 C-77.33 106.01 -77.66 105.02 -78 104 C-78.99 104 -79.98 104 -81 104 Z " fill="#83DDDF" transform="translate(228,30)"/>
<path d="M0 0 C1.76 0 3.52 0 5.34 0.01 C7.25 0 9.16 0 11.14 0 C12.14 0.01 12.14 0.01 17.21 0.06 C19.22 0.06 21.22 0.05 23.29 0.04 C38.25 0.11 38.25 0.11 41.65 3.5 C43.79 3.67 45.94 3.83 48.15 4 C54.65 4.5 54.65 4.5 57.65 7.5 C62.33 8.19 62.33 8.19 66.65 8.5 C66.65 9.49 66.65 10.48 66.65 11.5 C69.29 11.83 71.93 12.16 74.65 12.5 C74.65 13.49 74.65 14.48 74.65 15.5 C75.86 15.54 77.08 15.58 78.33 15.63 C82.65 16.5 82.65 16.5 87.65 22.5 C87.65 23.16 87.65 23.82 87.65 24.5 C88.64 24.5 89.63 24.5 90.65 24.5 C94.36 28.22 94.23 30.4 94.65 35.5 C95.64 35.5 96.63 35.5 97.65 35.5 C97.73 39.31 97.79 43.13 97.83 46.94 C97.87 49.06 97.9 51.19 97.94 53.37 C97.84 55.07 97.75 56.76 97.65 58.5 C96.66 58.83 95.67 59.16 94.65 59.5 C93.99 60.82 93.33 62.14 92.65 63.5 C87.16 70.24 87.16 70.24 84.65 71.5 C76.89 71.16 70.13 70.64 62.65 68.5 C59.65 68.12 56.65 67.78 53.65 67.5 C53.65 66.51 53.65 65.52 53.65 64.5 C40.76 63.67 27.93 63.39 15.02 63.38 C13.47 63.37 11.92 63.37 10.32 63.36 C-11.24 63.39 -11.24 63.39 -14.35 66.5 C-18.35 67.18 -22.35 67.85 -26.35 68.5 C-27.01 68.83 -27.01 68.83 -30.35 70.5 C-31.19 70.57 -31.19 70.57 -35.42 70.94 C-40.35 71.5 -40.35 71.5 -43.35 74.5 C-49.35 74.5 -49.35 74.5 -55.17 69.56 C-60.12 63.78 -61.72 61.88 -61.35 54.5 C-62.34 54.5 -63.33 54.5 -64.35 54.5 C-64.43 51.54 -64.49 48.59 -64.54 45.63 C-64.58 43.98 -64.61 42.33 -64.65 40.63 C-64.55 39.27 -64.45 37.91 -64.35 36.5 C-63.36 35.84 -62.37 35.18 -61.35 34.5 C-61.02 33.35 -61.02 33.35 -59.35 27.5 C-49.73 16.73 -49.73 16.73 -42.35 15.5 C-42.02 14.51 -41.69 13.52 -41.35 12.5 C-38.71 12.5 -36.07 12.5 -33.35 12.5 C-33.02 11.18 -32.69 9.86 -32.35 8.5 C-29.71 8.5 -27.07 8.5 -24.35 8.5 C-23.03 7.18 -21.71 5.86 -20.35 4.5 C-16.35 4.5 -12.35 4.5 -8.35 4.5 C-4.35 0.5 -4.35 0.5 0 0 Z " fill="#A1EAE8" transform="translate(237.353759765625,48.498291015625)"/>
<path d="M0 0 C1.63 -0 3.26 -0.01 4.94 -0.01 C9 0.12 9 0.12 11 1.12 C13.08 1.41 15.17 1.7 17.31 2 C24 3.12 24 3.12 29 6.12 C30.32 6.46 31.64 6.78 33 7.12 C33 7.78 33 8.44 33 9.12 C34.65 9.46 36.3 9.78 38 10.12 C45 12.12 45 12.12 49 18.12 C50.65 19.44 52.3 20.76 54 22.12 C54 22.78 54 23.44 54 24.12 C54.66 24.29 54.66 24.29 58 25.12 C62.29 32.64 61.4 40.75 61 49.12 C57.53 57.23 53.01 61.87 47 68.12 C45.97 69.34 44.94 70.56 43.88 71.81 C40.03 74.91 36.84 74.77 32 75.12 C31.01 76.12 30.02 77.11 29 78.12 C26.33 78.46 23.67 78.79 21 79.12 C20.01 80.12 19.02 81.11 18 82.12 C7.28 83.48 -3.3 83.58 -14 82.12 C-16.31 82.12 -18.62 82.12 -21 82.12 C-21.66 81.13 -22.32 80.14 -23 79.12 C-24.65 79.12 -26.3 79.12 -28 79.12 C-33 77.12 -33 77.12 -35 75.12 C-36.65 75.12 -38.3 75.12 -40 75.12 C-40 74.47 -40 73.81 -40 73.12 C-40.66 73.12 -41.32 73.12 -42 73.12 C-42 72.47 -42 71.81 -42 71.12 C-44.31 70.47 -46.62 69.81 -49 69.12 C-50.98 67.47 -52.96 65.82 -55 64.12 C-55 63.47 -55 62.81 -55 62.12 C-56.32 61.47 -57.64 60.81 -59 60.12 C-64 54.12 -64 54.12 -66 47.12 C-66.66 47.12 -67.32 47.12 -68 47.12 C-68.19 42.31 -68.19 42.31 -68 37.12 C-67.01 36.13 -66.02 35.15 -65 34.12 C-64.92 32.74 -64.85 31.36 -64.77 29.93 C-63.76 23.64 -61.32 21.53 -56.75 17.19 C-55.42 15.9 -54.1 14.61 -52.73 13.29 C-49 10.12 -49 10.12 -44 8.12 C-40.18 6.27 -36.53 4.48 -33 2.12 C-29.32 1.85 -25.63 1.67 -21.94 1.56 C-14.34 1.32 -7.55 -0.01 0 0 Z " fill="#A0E9E7" transform="translate(322,143.875)"/>
<path d="M0 0 C0.66 0.99 1.32 1.98 2 3 C3.34 3.1 4.68 3.21 6.06 3.31 C14.97 4.55 21.22 10.36 27 17 C27 18.32 27 19.64 27 21 C27.5 21.17 27.5 21.17 30 22 C30.67 25 31.33 28 32 31 C32.5 31.17 32.5 31.17 35 32 C37.99 52.68 37.99 52.68 33 61 C32.83 62.57 32.67 64.13 32.5 65.75 C32.33 67.15 32.17 68.56 32 70 C31.5 70.16 31.5 70.16 29 71 C28.67 71.66 28.67 71.66 27 75 C24.08 78.08 21.08 81.09 18 84 C17.34 84 16.68 84 16 84 C15.84 84.66 15.84 84.66 15 88 C13.02 88 11.04 88 9 88 C8.67 89.65 8.34 91.3 8 93 C1.81 93.63 1.81 93.63 -6 93.56 C-8.58 93.56 -11.16 93.57 -13.81 93.57 C-15.85 93.38 -17.9 93.19 -20 93 C-20.33 91.68 -20.66 90.36 -21 89 C-22.16 89.33 -22.16 89.33 -28 91 C-28.83 91.16 -28.83 91.16 -33 92 C-33 91.01 -33 90.02 -33 89 C-31.68 89 -30.36 89 -29 89 C-29 87.68 -29 86.36 -29 85 C-30.32 85 -31.64 85 -33 85 C-33.33 84.01 -33.66 83.02 -34 82 C-34.5 81.84 -34.5 81.84 -37 81 C-37.33 80.01 -37.66 79.02 -38 78 C-38.99 77.67 -39.98 77.34 -41 77 C-41.33 76.01 -41.66 75.02 -42 74 C-42.99 73.67 -43.98 73.34 -45 73 C-45.33 74.32 -45.66 75.64 -46 77 C-46.99 76.67 -47.98 76.34 -49 76 C-49 72.33 -49 68.67 -49 65 C-48.01 65 -47.02 65 -46 65 C-46 63.68 -46 62.36 -46 61 C-47.32 61 -48.64 61 -50 61 C-50 64.63 -50 68.26 -50 72 C-50.99 72 -51.98 72 -53 72 C-53.08 67.33 -53.08 62.67 -53 58 C-52.67 57.83 -52.67 57.83 -51 57 C-50.8 53 -50.74 49 -50.75 45 C-50.74 42.79 -50.74 40.59 -50.73 38.31 C-50.82 36.56 -50.91 34.81 -51 33 C-51.66 32.67 -52.32 32.34 -53 32 C-53.08 28.67 -53.08 25.33 -53 22 C-52.01 22 -51.02 22 -50 22 C-50 24.31 -50 26.62 -50 29 C-48.68 29 -47.36 29 -46 29 C-46 27.68 -46 26.36 -46 25 C-46.99 25 -47.98 25 -49 25 C-49 21.37 -49 17.74 -49 14 C-48.01 14 -47.02 14 -46 14 C-44.16 10.32 -44.36 6.05 -44 2 C-43.34 2 -42.68 2 -42 2 C-42 3.32 -42 4.64 -42 6 C-41.01 6 -40.02 6 -39 6 C-38.67 6.99 -38.34 7.98 -38 9 C-38.99 9 -39.98 9 -41 9 C-41.33 10.32 -41.66 11.64 -42 13 C-40.68 12.67 -39.36 12.34 -38 12 C-37.67 11.34 -37.34 10.68 -37 10 C-35.02 10 -33.04 10 -31 10 C-30.67 8.35 -30.34 6.7 -30 5 C-28.68 5 -27.36 5 -26 5 C-25.01 4.01 -24.02 3.02 -23 2 C-14.15 -1.79 -9.48 -1.08 0 0 Z M-46 16 C-46 17.65 -46 19.3 -46 21 C-44.35 20.67 -42.7 20.34 -41 20 C-41.33 19.01 -41.66 18.02 -42 17 C-43.32 16.67 -44.64 16.34 -46 16 Z " fill="#50A6C1" transform="translate(120,309)"/>
<path d="M0 0 C2.25 0.06 4.5 0.12 6.81 0.19 C6.81 1.18 6.81 2.17 6.81 3.19 C8.46 2.53 10.11 1.87 11.81 1.19 C13.79 1.52 15.77 1.85 17.81 2.19 C17.98 2.85 17.98 2.85 18.81 6.19 C19.8 6.19 20.79 6.19 21.81 6.19 C21.81 8.83 21.81 11.47 21.81 14.19 C22.8 13.86 23.79 13.53 24.81 13.19 C27.12 13.19 29.43 13.19 31.81 13.19 C31.98 13.68 31.98 13.68 32.81 16.19 C33.47 16.35 33.47 16.35 36.81 17.19 C36.81 15.87 36.81 14.55 36.81 13.19 C37.8 13.19 38.79 13.19 39.81 13.19 C39.81 15.83 39.81 18.47 39.81 21.19 C38.82 21.19 37.83 21.19 36.81 21.19 C36.81 22.51 36.81 23.83 36.81 25.19 C38.13 25.19 39.45 25.19 40.81 25.19 C40.81 22.88 40.81 20.57 40.81 18.19 C41.8 18.19 42.79 18.19 43.81 18.19 C44 23.12 44 23.12 43.81 28.19 C43.32 28.35 43.32 28.35 40.81 29.19 C40.7 34.57 40.77 39.82 41 45.19 C41.04 46.7 41.09 48.21 41.13 49.77 C41.27 53.58 41.53 57.39 41.81 61.19 C42.47 61.52 43.13 61.85 43.81 62.19 C43.89 65.52 43.9 68.86 43.81 72.19 C42.82 72.19 41.83 72.19 40.81 72.19 C40.81 69.88 40.81 67.57 40.81 65.19 C39.49 65.19 38.17 65.19 36.81 65.19 C36.81 66.51 36.81 67.83 36.81 69.19 C37.8 69.19 38.79 69.19 39.81 69.19 C39.81 71.5 39.81 73.81 39.81 76.19 C39.32 76.35 39.32 76.35 36.81 77.19 C36.81 75.87 36.81 74.55 36.81 73.19 C35.49 73.52 34.17 73.85 32.81 74.19 C32.65 74.68 32.65 74.68 31.81 77.19 C31.32 77.35 31.32 77.35 28.81 78.19 C28.65 78.68 28.65 78.68 27.81 81.19 C27.32 81.35 27.32 81.35 24.81 82.19 C24.65 82.68 24.65 82.68 23.81 85.19 C23.32 85.35 23.32 85.35 20.81 86.19 C20.65 86.68 20.65 86.68 19.81 89.19 C21.46 89.52 23.11 89.85 24.81 90.19 C24.48 90.85 24.15 91.51 23.81 92.19 C22.49 92.19 21.17 92.19 19.81 92.19 C19.48 91.53 19.15 90.87 18.81 90.19 C16.5 89.86 14.19 89.53 11.81 89.19 C11.81 90.51 11.81 91.83 11.81 93.19 C3.23 93.19 -5.35 93.19 -14.19 93.19 C-14.19 91.21 -14.19 89.23 -14.19 87.19 C-15.51 86.86 -16.83 86.53 -18.19 86.19 C-18.19 86.85 -18.19 87.51 -18.19 88.19 C-24.19 87.19 -24.19 87.19 -26.19 86.19 C-26.19 85.53 -26.19 84.87 -26.19 84.19 C-26.85 84.19 -27.51 84.19 -28.19 84.19 C-28.19 82.87 -28.19 81.55 -28.19 80.19 C-28.85 80.19 -29.51 80.19 -30.19 80.19 C-30.19 79.53 -30.19 78.87 -30.19 78.19 C-31.51 78.19 -32.83 78.19 -34.19 78.19 C-34.19 77.2 -34.19 76.21 -34.19 75.19 C-34.85 75.19 -35.51 75.19 -36.19 75.19 C-36.29 73.89 -36.39 72.59 -36.5 71.25 C-36.73 69.91 -36.95 68.57 -37.19 67.19 C-38.18 66.86 -39.17 66.53 -40.19 66.19 C-40.62 61.86 -40.94 57.53 -41.19 53.19 C-41.52 51.87 -41.85 50.55 -42.19 49.19 C-42.85 49.19 -43.51 49.19 -44.19 49.19 C-44.31 44.86 -44.31 40.52 -44.19 36.19 C-43.2 35.53 -42.21 34.87 -41.19 34.19 C-40.53 32.21 -39.87 30.23 -39.19 28.19 C-38.53 27.53 -37.87 26.87 -37.19 26.19 C-36.53 24.21 -35.87 22.23 -35.19 20.19 C-31.81 16.14 -31.81 16.14 -27.62 11.88 C-26.26 10.46 -24.9 9.04 -23.5 7.57 C-18.67 3.78 -16.18 3.49 -10.19 3.19 C-7.19 0.19 -7.19 0.19 0 0 Z " fill="#50A6C1" transform="translate(401.1875,308.8125)"/>
<path d="M0 0 C1.62 0.03 3.24 0.05 4.9 0.08 C5.71 0.09 5.71 0.09 9.81 0.12 C13.84 0.33 13.84 0.33 15.84 1.33 C15.84 2.32 15.84 3.31 15.84 4.33 C18.11 4.25 20.38 4.16 22.71 4.08 C25.07 4.16 27.42 4.24 29.84 4.33 C30.17 4.99 30.17 4.99 31.84 8.33 C35.44 10.13 39.14 11.74 42.84 13.33 C47.44 17.93 49.2 21.18 51.84 27.33 C52.17 27.33 52.5 27.33 52.84 27.33 C53.62 34.87 53.95 39.96 51.84 47.33 C51.51 47.66 51.51 47.66 49.84 49.33 C49.18 50.98 48.52 52.63 47.84 54.33 C39.6 63.35 33.87 67.9 21.84 69.33 C21.34 69.82 21.34 69.82 18.84 72.33 C10.04 73.64 0.6 73.94 -8.16 72.33 C-8.82 71.34 -9.48 70.35 -10.16 69.33 C-11.81 69.33 -13.46 69.33 -15.16 69.33 C-20.16 67.33 -20.16 67.33 -23.72 64.27 C-27.16 61.33 -27.16 61.33 -31.16 60.33 C-31.16 59.67 -31.16 59.01 -31.16 58.33 C-31.82 58.33 -32.48 58.33 -33.16 58.33 C-33.16 57.67 -33.16 57.01 -33.16 56.33 C-33.82 56.33 -34.48 56.33 -35.16 56.33 C-35.49 54.35 -35.82 52.37 -36.16 50.33 C-36.82 50.33 -37.48 50.33 -38.16 50.33 C-39.17 47.67 -40.17 45 -41.16 42.33 C-41.82 42 -42.48 41.67 -43.16 41.33 C-43.73 34.17 -43.79 32.11 -39.16 26.33 C-39.49 25.01 -39.82 23.69 -40.16 22.33 C-36.94 19.2 -33.59 16.21 -30.16 13.33 C-29.53 12.75 -29.53 12.75 -26.35 9.83 C-23.16 7.33 -23.16 7.33 -18.16 6.33 C-16.84 5.67 -15.52 5.01 -14.16 4.33 C-13.01 4.16 -13.01 4.16 -7.16 3.33 C-4.16 0.33 -4.16 0.33 0 0 Z " fill="#9EE8E7" transform="translate(177.16015625,181.671875)"/>
<path d="M0 0 C0.99 0 1.98 0 3 0 C3 21.78 3 43.56 3 66 C2.01 66 1.02 66 0 66 C0 44.22 0 22.44 0 0 Z " fill="#62C4CE" transform="translate(438,251)"/>
<path d="M0 0 C17.82 0 35.64 0 54 0 C54 0.99 54 1.98 54 3 C36.18 3 18.36 3 0 3 C0 2.01 0 1.02 0 0 Z " fill="#83D7D7" transform="translate(227,23)"/>
<path d="M0 0 C0.99 0 1.98 0 3 0 C3 16.5 3 33 3 50 C2.01 50 1.02 50 0 50 C0 33.5 0 17 0 0 Z " fill="#5AC1D0" transform="translate(71,259)"/>
<path d="M0 0 C0.99 0 1.98 0 3 0 C3 12.54 3 25.08 3 38 C2.01 38 1.02 38 0 38 C0 25.46 0 12.92 0 0 Z " fill="#57ABCA" transform="translate(446,335)"/>
<path d="M0 0 C11.22 0 22.44 0 34 0 C34 0.99 34 1.98 34 3 C22.78 3 11.56 3 0 3 C0 2.01 0 1.02 0 0 Z " fill="#4AA3C2" transform="translate(311,490)"/>
<path d="M0 0 C11.22 0 22.44 0 34 0 C34 0.99 34 1.98 34 3 C22.78 3 11.56 3 0 3 C0 2.01 0 1.02 0 0 Z " fill="#4AA3C2" transform="translate(171,490)"/>
<path d="M0 0 C0.99 0 1.98 0 3 0 C3 11.22 3 22.44 3 34 C2.01 34 1.02 34 0 34 C0 22.78 0 11.56 0 0 Z " fill="#7ED0D0" transform="translate(374,87)"/>
<path d="M0 0 C0.99 0 1.98 0 3 0 C3 9.9 3 19.8 3 30 C2.01 30 1.02 30 0 30 C0 20.1 0 10.2 0 0 Z " fill="#4CA4C3" transform="translate(63,339)"/>
<path d="M0 0 C1.2 0.05 1.2 0.05 7.26 0.31 C8.18 0.35 8.18 0.35 12.88 0.56 C12.88 1.55 12.88 2.54 12.88 3.56 C8.4 3.84 3.92 4.08 -0.56 4.31 C-1.81 4.38 -1.81 4.38 -8.12 4.73 C-10.1 4.68 -12.08 4.62 -14.12 4.56 C-14.45 3.24 -14.79 1.92 -15.12 0.56 C-10.85 -1.58 -4.6 -0.2 0 0 Z " fill="#59B6CA" transform="translate(400.125,405.4375)"/>
<path d="M0 0 C9.24 0 18.48 0 28 0 C27.67 1.32 27.34 2.64 27 4 C21 4.17 21 4.17 13.44 3.75 C10.94 3.62 8.44 3.49 5.87 3.36 C4.9 3.3 4.9 3.3 0 3 C0 2.01 0 1.02 0 0 Z " fill="#53B5C7" transform="translate(99,406)"/>
<path d="M0 0 C0.99 0 1.98 0 3 0 C3 8.58 3 17.16 3 26 C2.01 26 1.02 26 0 26 C0 17.42 0 8.84 0 0 Z " fill="#86D6D6" transform="translate(131,91)"/>
<path d="M0 0 C0.66 0.33 1.32 0.66 2 1 C2.15 4.68 2.17 8.38 2.12 12.06 C2.11 14.1 2.09 16.13 2.07 18.22 C2.05 19.8 2.02 21.38 2 23 C1.01 23 0.02 23 -1 23 C-1.03 19.35 -1.05 15.71 -1.06 12.06 C-1.07 10.03 -1.09 8 -1.1 5.91 C-1 1 -1 1 0 0 Z " fill="#45A5C2" transform="translate(375,442)"/>
<path d="M0 0 C0.99 0 1.98 0 3 0 C3 7.26 3 14.52 3 22 C2.01 22 1.02 22 0 22 C0 14.74 0 7.48 0 0 Z " fill="#4BA6C7" transform="translate(139,443)"/>
<path d="M0 0 C3.31 -0.08 6.62 -0.14 9.94 -0.19 C11.78 -0.22 13.63 -0.26 15.53 -0.29 C16.27 -0.24 16.27 -0.24 20 0 C20.33 0.99 20.66 1.98 21 3 C14.07 3 7.14 3 0 3 C0 2.01 0 1.02 0 0 Z " fill="#88DCDD" transform="translate(207,27)"/>
<path d="M0 0 C4.47 -0.29 4.47 -0.29 10.06 -0.19 C11.91 -0.16 13.76 -0.13 15.66 -0.11 C16.38 -0.09 16.38 -0.09 20 0 C20 0.99 20 1.98 20 3 C13.07 3 6.14 3 -1 3 C-0.67 2.01 -0.34 1.02 0 0 Z " fill="#84DCDD" transform="translate(281,27)"/>
<path d="M0 0 C4 -0.13 8 -0.12 12 0 C12.33 0.99 12.66 1.98 13 3 C8.71 3 4.42 3 0 3 C0 2.01 0 1.02 0 0 Z " fill="#88D8DA" transform="translate(195,31)"/>
<path d="M0 0 C4 -0.12 8 -0.13 12 0 C12 0.99 12 1.98 12 3 C7.71 3 3.42 3 -1 3 C-0.67 2.01 -0.34 1.02 0 0 Z " fill="#82DEE0" transform="translate(301,31)"/>
<path d="M0 0 C3.96 0 7.92 0 12 0 C12 0.99 12 1.98 12 3 C8.04 3 4.08 3 0 3 C0 2.01 0 1.02 0 0 Z " fill="#499DC5" transform="translate(345,486)"/>
<path d="M0 0 C3.96 0 7.92 0 12 0 C12 0.99 12 1.98 12 3 C8.04 3 4.08 3 0 3 C0 2.01 0 1.02 0 0 Z " fill="#499DC5" transform="translate(205,486)"/>
<path d="M0 0 C3.96 0 7.92 0 12 0 C12 0.99 12 1.98 12 3 C8.04 3 4.08 3 0 3 C0 2.01 0 1.02 0 0 Z " fill="#88DEDE" transform="translate(313,35)"/>
<path d="M0 0 C2.64 0 5.28 0 8 0 C7.67 1.32 7.34 2.64 7 4 C6.01 3.83 6.01 3.83 1 3 C0.67 2.01 0.34 1.02 0 0 Z " fill="#5BC8E0" transform="translate(143,426)"/>
<path d="M0 0 C0 0.99 0 1.98 0 3 C-2.64 3 -5.28 3 -8 3 C-7.67 2.01 -7.34 1.02 -7 0 C-4 -1 -4 -1 0 0 Z " fill="#54C7D3" transform="translate(147,143)"/>
<path d="M0 0 C0.99 0.16 0.99 0.16 6 1 C6.33 1.99 6.66 2.98 7 4 C4.36 4 1.72 4 -1 4 C-0.67 2.68 -0.34 1.36 0 0 Z " fill="#6ECDCF" transform="translate(338,46)"/>
<path d="M0 0 C2.64 0 5.28 0 8 0 C8.33 0.99 8.66 1.98 9 3 C6.03 3 3.06 3 0 3 C0 2.01 0 1.02 0 0 Z " fill="#81D0D7" transform="translate(187,35)"/>
<path d="M0 0 C2.64 0 5.28 0 8 0 C8 0.99 8 1.98 8 3 C5.36 3 2.72 3 0 3 C0 2.01 0 1.02 0 0 Z " fill="#46A8BB" transform="translate(303,486)"/>
<path d="M0 0 C2.64 0 5.28 0 8 0 C8 0.99 8 1.98 8 3 C5.36 3 2.72 3 0 3 C0 2.01 0 1.02 0 0 Z " fill="#46A8BB" transform="translate(163,486)"/>
<path d="M0 0 C2.64 0 5.28 0 8 0 C8 0.99 8 1.98 8 3 C5.36 3 2.72 3 0 3 C0 2.01 0 1.02 0 0 Z " fill="#4BA3C0" transform="translate(413,402)"/>
<path d="M0 0 C0 0.99 0 1.98 0 3 C-2.31 3 -4.62 3 -7 3 C-7 2.01 -7 1.02 -7 0 C-4 -1 -4 -1 0 0 Z " fill="#73DDE0" transform="translate(167,51)"/>
<path d="M0 0 C2.31 0 4.62 0 7 0 C7.33 0.99 7.66 1.98 8 3 C5.03 3 2.06 3 -1 3 C-0.67 2.01 -0.34 1.02 0 0 Z " fill="#7CDCDC" transform="translate(325,39)"/>
<path d="M0 0 C2.64 0 5.28 0 8 0 C8 0.99 8 1.98 8 3 C5.36 3 2.72 3 0 3 C0 2.01 0 1.02 0 0 Z " fill="#46B4C6" transform="translate(91,402)"/>
<path d="M0 0 C1.65 0 3.3 0 5 0 C5 1.32 5 2.64 5 4 C3.68 4.33 2.36 4.66 1 5 C0.67 3.35 0.34 1.7 0 0 Z " fill="#44A9C4" transform="translate(150,430)"/>
<path d="M0 0 C0.66 0.33 0.66 0.33 4 2 C3.67 3.32 3.34 4.64 3 6 C2.01 6 1.02 6 0 6 C0 4.02 0 2.04 0 0 Z " fill="#5ECBCD" transform="translate(75,384)"/>
<path d="M0 0 C0.33 0.99 0.66 1.98 1 3 C0.67 3.66 0.34 4.32 0 5 C-1.32 4.67 -2.64 4.34 -4 4 C-4 3.01 -4 2.02 -4 1 C-2 0 -2 0 0 0 Z " fill="#40ACB4" transform="translate(373,421)"/>
<path d="M0 0 C0.33 0.99 0.66 1.98 1 3 C0.67 3.66 0.34 4.32 0 5 C-1.32 4.67 -2.64 4.34 -4 4 C-4 3.01 -4 2.02 -4 1 C-2 0 -2 0 0 0 Z " fill="#41C0DC" transform="translate(377,417)"/>
<path d="M0 0 C0.66 0.17 0.66 0.17 4 1 C3.67 2.32 3.34 3.64 3 5 C2.01 5 1.02 5 0 5 C-0.33 4.01 -0.66 3.02 -1 2 C-0.67 1.34 -0.34 0.68 0 0 Z " fill="#40ADB6" transform="translate(135,417)"/>
<path d="M0 0 C0.66 0.17 0.66 0.17 4 1 C3.67 2.32 3.34 3.64 3 5 C2.01 5 1.02 5 0 5 C-0.33 4.01 -0.66 3.02 -1 2 C-0.67 1.34 -0.34 0.68 0 0 Z " fill="#43A6C6" transform="translate(131,413)"/>
<path d="M0 0 C0.33 0.99 0.66 1.98 1 3 C0.67 3.66 0.34 4.32 0 5 C-1.32 4.67 -2.64 4.34 -4 4 C-4 3.01 -4 2.02 -4 1 C-2 0 -2 0 0 0 Z " fill="#47C3C9" transform="translate(381,413)"/>
<path d="M0 0 C0.66 0.17 0.66 0.17 4 1 C3.67 2.32 3.34 3.64 3 5 C2.01 5 1.02 5 0 5 C-0.33 4.01 -0.66 3.02 -1 2 C-0.67 1.34 -0.34 0.68 0 0 Z " fill="#46B0C3" transform="translate(127,409)"/>
<path d="M0 0 C0.33 0.99 0.66 1.98 1 3 C0.67 3.66 0.34 4.32 0 5 C-1.32 4.67 -2.64 4.34 -4 4 C-4 3.01 -4 2.02 -4 1 C-2 0 -2 0 0 0 Z " fill="#57C3D1" transform="translate(385,409)"/>
<path d="M0 0 C0.33 0.99 0.66 1.98 1 3 C0.67 3.66 0.34 4.32 0 5 C-1.32 4.67 -2.64 4.34 -4 4 C-4 3.01 -4 2.02 -4 1 C-2 0 -2 0 0 0 Z " fill="#41AADA" transform="translate(429,393)"/>
<path d="M0 0 C0.66 0.17 0.66 0.17 4 1 C3.67 2.32 3.34 3.64 3 5 C2.01 5 1.02 5 0 5 C-0.33 4.01 -0.66 3.02 -1 2 C-0.67 1.34 -0.34 0.68 0 0 Z " fill="#3F99AC" transform="translate(83,393)"/>
<path d="M0 0 C0.33 0.99 0.66 1.98 1 3 C0.67 3.66 0.34 4.32 0 5 C-1.32 4.67 -2.64 4.34 -4 4 C-4 3.01 -4 2.02 -4 1 C-2 0 -2 0 0 0 Z " fill="#57C1E3" transform="translate(433,389)"/>
<path d="M0 0 C0.66 0.17 0.66 0.17 4 1 C3.67 2.32 3.34 3.64 3 5 C2.01 5 1.02 5 0 5 C-0.33 4.01 -0.66 3.02 -1 2 C-0.67 1.34 -0.34 0.68 0 0 Z " fill="#3BAFB7" transform="translate(79,389)"/>
<path d="M0 0 C0.99 0 1.98 0 3 0 C3.33 0.99 3.66 1.98 4 3 C3.67 3.66 3.34 4.32 3 5 C1.68 4.67 0.36 4.34 -1 4 C-0.67 2.68 -0.34 1.36 0 0 Z " fill="#50C0C3" transform="translate(394,166)"/>
<path d="M0 0 C0.99 0 1.98 0 3 0 C3.33 0.99 3.66 1.98 4 3 C3.67 3.66 3.34 4.32 3 5 C1.68 4.67 0.36 4.34 -1 4 C-0.67 2.68 -0.34 1.36 0 0 Z " fill="#4AB0B5" transform="translate(390,162)"/>
<path d="M0 0 C0.99 0 1.98 0 3 0 C3.33 0.99 3.66 1.98 4 3 C3.67 3.66 3.34 4.32 3 5 C1.68 4.67 0.36 4.34 -1 4 C-0.67 2.68 -0.34 1.36 0 0 Z " fill="#46B0C1" transform="translate(386,158)"/>
<path d="M0 0 C0.99 0 1.98 0 3 0 C3.33 0.99 3.66 1.98 4 3 C3.67 3.66 3.34 4.32 3 5 C1.68 4.67 0.36 4.34 -1 4 C-0.67 2.68 -0.34 1.36 0 0 Z " fill="#46A8C1" transform="translate(382,154)"/>
<path d="M0 0 C0.99 0 1.98 0 3 0 C3.33 0.99 3.66 1.98 4 3 C3.67 3.66 3.34 4.32 3 5 C1.68 4.67 0.36 4.34 -1 4 C-0.67 2.68 -0.34 1.36 0 0 Z " fill="#41A3C9" transform="translate(378,150)"/>
<path d="M0 0 C0.99 0 1.98 0 3 0 C3.33 1.32 3.66 2.64 4 4 C2.68 4.33 1.36 4.66 0 5 C0 3.35 0 1.7 0 0 Z " fill="#4E98BC" transform="translate(147,434)"/>
<path d="M0 0 C0 1.65 0 3.3 0 5 C-1.32 4.67 -2.64 4.34 -4 4 C-4 3.01 -4 2.02 -4 1 C-2 0 -2 0 0 0 Z " fill="#4CA3BC" transform="translate(437,385)"/>
<path d="M0 0 C0.99 0.33 1.98 0.66 3 1 C3 2.32 3 3.64 3 5 C1.68 4.67 0.36 4.34 -1 4 C-0.67 2.68 -0.34 1.36 0 0 Z " fill="#5AC5E3" transform="translate(398,170)"/>
<path d="M0 0 C0.99 0.33 1.98 0.66 3 1 C2.67 2.32 2.34 3.64 2 5 C1.01 5 0.02 5 -1 5 C-0.67 3.35 -0.34 1.7 0 0 Z " fill="#59BAD5" transform="translate(116,166)"/>
<path d="M0 0 C0.99 0.33 1.98 0.66 3 1 C3 1.99 3 2.98 3 4 C1.68 4.33 0.36 4.66 -1 5 C-1.33 4.01 -1.66 3.02 -2 2 C-1.34 1.34 -0.68 0.68 0 0 Z " fill="#51C2D7" transform="translate(124,158)"/>
<path d="M0 0 C0.99 0.33 1.98 0.66 3 1 C3 1.99 3 2.98 3 4 C1.68 4.33 0.36 4.66 -1 5 C-1.33 4.01 -1.66 3.02 -2 2 C-1.34 1.34 -0.68 0.68 0 0 Z " fill="#51C2D7" transform="translate(128,154)"/>
<path d="M0 0 C0.99 0.33 1.98 0.66 3 1 C3 2.32 3 3.64 3 5 C1.68 4.67 0.36 4.34 -1 4 C-0.67 2.68 -0.34 1.36 0 0 Z " fill="#5FE4E4" transform="translate(358,62)"/>
<path d="M0 0 C0.99 0.33 1.98 0.66 3 1 C3 1.99 3 2.98 3 4 C1.68 4.33 0.36 4.66 -1 5 C-0.67 3.35 -0.34 1.7 0 0 Z " fill="#4ECEEC" transform="translate(120,162)"/>
<path d="M0 0 C0.99 0.33 1.98 0.66 3 1 C3 1.99 3 2.98 3 4 C2.01 4.33 1.02 4.66 0 5 C-0.66 4.01 -1.32 3.02 -2 2 C-1.34 1.34 -0.68 0.68 0 0 Z " fill="#59AACC" transform="translate(132,150)"/>
<path d="M0 0 C1.32 0.66 2.64 1.32 4 2 C3.01 2.99 2.02 3.98 1 5 C0.34 4.67 -0.32 4.34 -1 4 C-0.67 2.68 -0.34 1.36 0 0 Z " fill="#4EC1E3" transform="translate(374,146)"/>
<path d="M0 0 C0.99 0.33 1.98 0.66 3 1 C3 1.99 3 2.98 3 4 C1.68 4.33 0.36 4.66 -1 5 C-0.67 3.35 -0.34 1.7 0 0 Z " fill="#65ECF1" transform="translate(152,58)"/>
<path d="M0 0 C0.99 0.33 1.98 0.66 3 1 C3 2.32 3 3.64 3 5 C1.68 4.67 0.36 4.34 -1 4 C-0.67 2.68 -0.34 1.36 0 0 Z " fill="#6BE0E8" transform="translate(354,58)"/>
<path d="M0 0 C1.32 0.66 2.64 1.32 4 2 C3.01 2.99 2.02 3.98 1 5 C0.34 4.67 -0.32 4.34 -1 4 C-0.67 2.68 -0.34 1.36 0 0 Z " fill="#62E0E0" transform="translate(350,54)"/>
<path d="M0 0 C0.82 0.17 0.82 0.17 5 1 C4.67 1.5 4.67 1.5 3 4 C2.01 3.67 1.02 3.34 0 3 C0 2.01 0 1.02 0 0 Z " fill="#427EB1" transform="translate(361,478)"/>
<path d="M0 0 C0.82 0.17 0.82 0.17 5 1 C4.67 1.5 4.67 1.5 3 4 C2.01 3.67 1.02 3.34 0 3 C0 2.01 0 1.02 0 0 Z " fill="#427EB1" transform="translate(221,478)"/>
<path d="M0 0 C1.65 0 3.3 0 5 0 C5 0.99 5 1.98 5 3 C3.35 2.67 1.7 2.34 0 2 C0 1.34 0 0.68 0 0 Z " fill="#55A4CB" transform="translate(356,482)"/>
<path d="M0 0 C1.65 0 3.3 0 5 0 C5 0.99 5 1.98 5 3 C3.35 2.67 1.7 2.34 0 2 C0 1.34 0 0.68 0 0 Z " fill="#55A4CB" transform="translate(216,482)"/>
</svg>
